<svg width="30" height="30" viewBox="0 0 30 30" fill="none" xmlns="http://www.w3.org/2000/svg">
<path d="M27.1875 3.75H2.8125C1.25918 3.75 0 5.00918 0 6.5625V23.4375C0 24.9908 1.25918 26.25 2.8125 26.25H27.1875C28.7408 26.25 30 24.9908 30 23.4375V6.5625C30 5.00918 28.7408 3.75 27.1875 3.75ZM27.1875 6.5625V8.95342C25.8737 10.0233 23.7792 11.6869 19.3015 15.1931C18.3148 15.9693 16.3601 17.834 15 17.8123C13.6402 17.8342 11.6848 15.969 10.6985 15.1931C6.22148 11.6874 4.12646 10.0235 2.8125 8.95342V6.5625H27.1875ZM2.8125 23.4375V12.5624C4.15512 13.6318 6.05912 15.1324 8.96121 17.4049C10.2419 18.413 12.4847 20.6385 15 20.6249C17.5029 20.6385 19.7173 18.4453 21.0383 17.4054C23.9403 15.1329 25.8448 13.6319 27.1875 12.5624V23.4375H2.8125Z" fill="white"/>
</svg>
