<svg width="30" height="30" viewBox="0 0 30 30" fill="none" xmlns="http://www.w3.org/2000/svg">
<path d="M7.75078 26.25H2.30859V8.72463H7.75078V26.25ZM5.02676 6.33401C3.28652 6.33401 1.875 4.8926 1.875 3.15237C1.875 2.31647 2.20706 1.51481 2.79813 0.923739C3.3892 0.33267 4.19086 0.000610352 5.02676 0.000610352C5.86266 0.000610352 6.66432 0.33267 7.25539 0.923739C7.84646 1.51481 8.17852 2.31647 8.17852 3.15237C8.17852 4.8926 6.76641 6.33401 5.02676 6.33401ZM28.1191 26.25H22.6887V17.7188C22.6887 15.6856 22.6477 13.0781 19.8592 13.0781C17.0297 13.0781 16.5961 15.2871 16.5961 17.5723V26.25H11.1598V8.72463H16.3793V11.1153H16.4555C17.182 9.73831 18.9568 8.28518 21.6047 8.28518C27.1125 8.28518 28.125 11.9121 28.125 16.6231V26.25H28.1191Z" fill="white"/>
</svg>
